G04 #@! TF.FileFunction,Copper,L1,Top,Signal*
%FSLAX46Y46*%
G04 Gerber Fmt 4.6, Leading zero omitted, Abs format (unit mm)*
G04 Created by KiCad (PCBNEW 4.0.6) date Tuesday, May 23, 2017 'AMt' 09:33:36 AM*
%MOMM*%
%LPD*%
G01*
G04 APERTURE LIST*
%ADD10C,0.150000*%
%ADD11C,5.460000*%
%ADD12R,1.520000X1.520000*%
%ADD13C,1.520000*%
%ADD14R,0.381000X1.397000*%
%ADD15C,1.143000*%
%ADD16C,1.270000*%
%ADD17C,0.635000*%
%ADD18C,0.203200*%
%ADD19C,0.398780*%
%ADD20C,0.254000*%
G04 APERTURE END LIST*
D10*
D11*
X95250000Y-40640000D03*
X67310000Y-40640000D03*
D12*
X86360000Y-39370000D03*
D13*
X86360000Y-41910000D03*
X83820000Y-39370000D03*
X83820000Y-41910000D03*
X81280000Y-39370000D03*
X81280000Y-41910000D03*
X78740000Y-39370000D03*
X78740000Y-41910000D03*
X76200000Y-39370000D03*
X76200000Y-41910000D03*
D14*
X96557500Y-59448700D03*
X95922500Y-59448700D03*
X95287500Y-59448700D03*
X94652500Y-59448700D03*
X94017500Y-59448700D03*
X93382500Y-59448700D03*
X92747500Y-59448700D03*
X92112500Y-59448700D03*
X91477500Y-59448700D03*
X90842500Y-59448700D03*
X90207500Y-59448700D03*
X89572500Y-59448700D03*
X88937500Y-59448700D03*
X88302500Y-59448700D03*
X87667500Y-59448700D03*
X87032500Y-59448700D03*
X86397500Y-59448700D03*
X85762500Y-59448700D03*
X85127500Y-59448700D03*
X84492500Y-59448700D03*
X83857500Y-59448700D03*
X83222500Y-59448700D03*
X82587500Y-59448700D03*
X81952500Y-59448700D03*
X81317500Y-59448700D03*
X80682500Y-59448700D03*
X80047500Y-59448700D03*
X79412500Y-59448700D03*
X78777500Y-59448700D03*
X78142500Y-59448700D03*
X77507500Y-59448700D03*
X76872500Y-59448700D03*
X76237500Y-59448700D03*
X75602500Y-59448700D03*
X74967500Y-59448700D03*
X74332500Y-59448700D03*
X73697500Y-59448700D03*
X73062500Y-59448700D03*
X72427500Y-59448700D03*
X71792500Y-59448700D03*
X71157500Y-59448700D03*
X70522500Y-59448700D03*
X69887500Y-59448700D03*
X69252500Y-59448700D03*
X68617500Y-59448700D03*
X67982500Y-59448700D03*
X67347500Y-59448700D03*
X66712500Y-59448700D03*
X66077500Y-59448700D03*
X65442500Y-59448700D03*
D15*
X97764000Y-62357000D03*
X64236000Y-62357000D03*
X97764000Y-60096400D03*
X64236000Y-60096400D03*
D16*
X29794200Y-39573200D03*
X59105800Y-39573200D03*
X29794200Y-41833800D03*
X59105800Y-41833800D03*
D17*
X86360000Y-39370000D03*
X96520000Y-57785000D03*
X97790000Y-54610000D03*
X32385000Y-44450000D03*
X66040000Y-58407310D03*
X38735000Y-44678600D03*
X72414810Y-58420000D03*
X40005000Y-44678600D03*
X73660000Y-58420000D03*
X41275000Y-44678600D03*
X74930000Y-58420000D03*
X42545000Y-44678600D03*
X76200000Y-58420000D03*
X43815000Y-44678600D03*
X77470000Y-58420000D03*
X33655000Y-44678600D03*
X45085000Y-44678600D03*
X78740000Y-58420000D03*
X46355000Y-44678600D03*
X80010000Y-58420000D03*
X47625000Y-44678600D03*
X81280000Y-58420000D03*
X48895000Y-44678600D03*
X82550000Y-58420000D03*
X50165000Y-44678600D03*
X83820000Y-58420000D03*
X67310000Y-58420000D03*
X51435000Y-44678600D03*
X85090000Y-58420000D03*
X52705000Y-44678600D03*
X86360000Y-58420000D03*
X53975000Y-44678600D03*
X87630000Y-58420000D03*
X55245000Y-44678600D03*
X88900000Y-58420000D03*
X56515000Y-44678600D03*
X90170000Y-58420000D03*
X34925000Y-44678600D03*
X68580000Y-58420000D03*
X36195000Y-44678600D03*
X69850000Y-58420000D03*
X37465000Y-44678600D03*
X71120000Y-58420000D03*
X94652499Y-60418401D03*
X95922499Y-60418401D03*
X97764000Y-60096400D03*
D18*
X96557500Y-59448700D02*
X96557500Y-57822500D01*
X96557500Y-57822500D02*
X96520000Y-57785000D01*
X93382500Y-59448700D02*
X93382500Y-54012500D01*
X93382500Y-54012500D02*
X82550000Y-43180000D01*
X82550000Y-43180000D02*
X81280000Y-41910000D01*
X92747500Y-59448700D02*
X92747500Y-60350400D01*
X84579999Y-40129999D02*
X83820000Y-39370000D01*
X84884801Y-40434801D02*
X84579999Y-40129999D01*
X93877801Y-51003707D02*
X84884801Y-42010707D01*
X93877801Y-60391041D02*
X93877801Y-51003707D01*
X93816841Y-60452001D02*
X93877801Y-60391041D01*
X92849101Y-60452001D02*
X93816841Y-60452001D01*
X92747500Y-60350400D02*
X92849101Y-60452001D01*
X84884801Y-42010707D02*
X84884801Y-40434801D01*
X95250000Y-61595000D02*
X95287500Y-61557500D01*
X95287500Y-61557500D02*
X95287500Y-59448700D01*
X93980000Y-61595000D02*
X95250000Y-61595000D01*
X93980000Y-61595000D02*
X94017500Y-61557500D01*
X94017500Y-61557500D02*
X94017500Y-59448700D01*
X92785000Y-61595000D02*
X93980000Y-61595000D01*
X92747500Y-61557500D02*
X92785000Y-61595000D01*
X92747500Y-59448700D02*
X92747500Y-61557500D01*
X95287500Y-59448700D02*
X95287500Y-57112500D01*
X95287500Y-57112500D02*
X97790000Y-54610000D01*
D19*
X76835000Y-38735000D02*
X76200000Y-39370000D01*
X86790736Y-36195000D02*
X79375000Y-36195000D01*
X79375000Y-36195000D02*
X76835000Y-38735000D01*
X90805000Y-42340736D02*
X90805000Y-40209264D01*
X90805000Y-40209264D02*
X86790736Y-36195000D01*
X91477500Y-59448700D02*
X91477500Y-61000546D01*
X92576153Y-62099199D02*
X95458847Y-62099199D01*
X91477500Y-61000546D02*
X92576153Y-62099199D01*
X95458847Y-62099199D02*
X96487555Y-61070491D01*
X98738091Y-50273827D02*
X90805000Y-42340736D01*
X96487555Y-61070491D02*
X98231565Y-61070491D01*
X98231565Y-61070491D02*
X98738091Y-60563965D01*
X98738091Y-60563965D02*
X98738091Y-50273827D01*
X91477500Y-59448700D02*
X91519409Y-59406791D01*
X91477500Y-59448700D02*
X91440000Y-59411200D01*
X76200000Y-41910000D02*
X75037409Y-40747409D01*
X87040088Y-35593010D02*
X91406990Y-39959912D01*
X75037409Y-40747409D02*
X75037409Y-38811955D01*
X75037409Y-38811955D02*
X78256354Y-35593010D01*
X91406990Y-39959912D02*
X91406990Y-42091384D01*
X91406990Y-42091384D02*
X99340081Y-50024475D01*
X78256354Y-35593010D02*
X87040088Y-35593010D01*
X99340081Y-50024475D02*
X99340081Y-62222575D01*
X99340081Y-62222575D02*
X98231565Y-63331091D01*
X98231565Y-63331091D02*
X92956703Y-63331091D01*
X92956703Y-63331091D02*
X90838011Y-61212399D01*
X90838011Y-61212399D02*
X90838011Y-59161847D01*
X90838011Y-59161847D02*
X90838011Y-59448700D01*
D18*
X65442500Y-59448700D02*
X65048800Y-59448700D01*
X46228000Y-58547000D02*
X46355000Y-58420000D01*
X35204489Y-47269489D02*
X32067501Y-47269489D01*
X65048800Y-59448700D02*
X64147100Y-58547000D01*
X64147100Y-58547000D02*
X46228000Y-58547000D01*
X32067501Y-47269489D02*
X32067501Y-44767499D01*
X32067501Y-44767499D02*
X32385000Y-44450000D01*
X46355000Y-58420000D02*
X35204489Y-47269489D01*
X66077500Y-59448700D02*
X66077500Y-58444810D01*
X66077500Y-58444810D02*
X66040000Y-58407310D01*
X38735000Y-44678600D02*
X38735000Y-47203257D01*
X71792500Y-58547000D02*
X71792500Y-59448700D01*
X71792500Y-56552500D02*
X71792500Y-58547000D01*
X70739110Y-55499110D02*
X71792500Y-56552500D01*
X38735000Y-47203257D02*
X47030852Y-55499109D01*
X47030852Y-55499109D02*
X70739110Y-55499110D01*
X72427500Y-59448700D02*
X72427500Y-58432690D01*
X72427500Y-58432690D02*
X72414810Y-58420000D01*
X73037111Y-57162111D02*
X70967700Y-55092700D01*
X70967700Y-55092700D02*
X47199193Y-55092699D01*
X47199193Y-55092699D02*
X40005000Y-47898506D01*
X40005000Y-47898506D02*
X40005000Y-45453300D01*
X40005000Y-45453300D02*
X40005000Y-44678600D01*
X73037111Y-59423311D02*
X73037111Y-57162111D01*
X73062500Y-59448700D02*
X73037111Y-59423311D01*
X73697500Y-59448700D02*
X73697500Y-58457500D01*
X73697500Y-58457500D02*
X73660000Y-58420000D01*
X73684800Y-59436000D02*
X73697500Y-59448700D01*
X71284277Y-54686288D02*
X74307699Y-57709710D01*
X41275000Y-44678600D02*
X41275000Y-48593755D01*
X41275000Y-48593755D02*
X47367533Y-54686288D01*
X47367533Y-54686288D02*
X71284277Y-54686288D01*
X74307699Y-59423899D02*
X74332500Y-59448700D01*
X74307699Y-57709710D02*
X74307699Y-59423899D01*
X74967500Y-58457500D02*
X74967500Y-59448700D01*
X74930000Y-58420000D02*
X74967500Y-58457500D01*
X75552301Y-59398501D02*
X75602500Y-59448700D01*
X47535873Y-54279877D02*
X71452617Y-54279877D01*
X74348260Y-57175521D02*
X74983261Y-57175521D01*
X75552301Y-57744561D02*
X75552301Y-59398501D01*
X42545000Y-44678600D02*
X42545000Y-49289004D01*
X74983261Y-57175521D02*
X75552301Y-57744561D01*
X71452617Y-54279877D02*
X74348260Y-57175521D01*
X42545000Y-49289004D02*
X47535873Y-54279877D01*
X76237500Y-58457500D02*
X76237500Y-59448700D01*
X76200000Y-58420000D02*
X76237500Y-58457500D01*
X47704213Y-53873466D02*
X43243500Y-49412753D01*
X43243500Y-45453300D02*
X43815000Y-44881800D01*
X76835000Y-59411200D02*
X76835000Y-57905500D01*
X43243500Y-49412753D02*
X43243500Y-45453300D01*
X76835000Y-57905500D02*
X75698610Y-56769110D01*
X74516599Y-56769109D02*
X71620957Y-53873466D01*
X76872500Y-59448700D02*
X76835000Y-59411200D01*
X75698610Y-56769110D02*
X74516599Y-56769109D01*
X43815000Y-44881800D02*
X43815000Y-44678600D01*
X71620957Y-53873466D02*
X47704213Y-53873466D01*
X77470000Y-58420000D02*
X77470000Y-59411200D01*
X77470000Y-59411200D02*
X77507500Y-59448700D01*
X77483081Y-59473119D02*
X77507500Y-59448700D01*
X66712500Y-59448700D02*
X66662301Y-59398501D01*
X66338705Y-57785009D02*
X46761409Y-57785009D01*
X46761409Y-57785009D02*
X33655000Y-44678600D01*
X66662301Y-59398501D02*
X66662301Y-58108605D01*
X66662301Y-58108605D02*
X66338705Y-57785009D01*
X78105000Y-59411200D02*
X78105000Y-58133994D01*
X71789297Y-53467055D02*
X47872553Y-53467055D01*
X74684940Y-56362699D02*
X71789297Y-53467055D01*
X76333705Y-56362699D02*
X74684940Y-56362699D01*
X78142500Y-59448700D02*
X78105000Y-59411200D01*
X45085000Y-45453300D02*
X45085000Y-44678600D01*
X45085000Y-50679502D02*
X45085000Y-45453300D01*
X47872553Y-53467055D02*
X45085000Y-50679502D01*
X78105000Y-58133994D02*
X76333705Y-56362699D01*
X78740000Y-58420000D02*
X78740000Y-59411200D01*
X78740000Y-59411200D02*
X78777500Y-59448700D01*
X48040893Y-53060644D02*
X46355000Y-51374751D01*
X71957637Y-53060644D02*
X48040893Y-53060644D01*
X79375000Y-58133994D02*
X77197294Y-55956288D01*
X46355000Y-45453300D02*
X46355000Y-44678600D01*
X74853279Y-55956287D02*
X71957637Y-53060644D01*
X79412500Y-59448700D02*
X79375000Y-59411200D01*
X77197294Y-55956288D02*
X74853279Y-55956287D01*
X46355000Y-51374751D02*
X46355000Y-45453300D01*
X79375000Y-59411200D02*
X79375000Y-58133994D01*
X80010000Y-58420000D02*
X80010000Y-59411200D01*
X80010000Y-59411200D02*
X80047500Y-59448700D01*
X75021620Y-55549877D02*
X72125977Y-52654233D01*
X72125977Y-52654233D02*
X48209233Y-52654233D01*
X48209233Y-52654233D02*
X47053500Y-51498500D01*
X47053500Y-51498500D02*
X47053500Y-45453300D01*
X80645000Y-59411200D02*
X80645000Y-58133994D01*
X80682500Y-59448700D02*
X80645000Y-59411200D01*
X80645000Y-58133994D02*
X78060883Y-55549877D01*
X78060883Y-55549877D02*
X75021620Y-55549877D01*
X47053500Y-45453300D02*
X47625000Y-44881800D01*
X47625000Y-44881800D02*
X47625000Y-44678600D01*
X81280000Y-58420000D02*
X81280000Y-59411200D01*
X81280000Y-59411200D02*
X81317500Y-59448700D01*
X48895000Y-50044502D02*
X48895000Y-45453300D01*
X51098320Y-52247822D02*
X48895000Y-50044502D01*
X81915000Y-59411200D02*
X81915000Y-58133994D01*
X48895000Y-45453300D02*
X48895000Y-44678600D01*
X72294317Y-52247822D02*
X51098320Y-52247822D01*
X81952500Y-59448700D02*
X81915000Y-59411200D01*
X81915000Y-58133994D02*
X78924472Y-55143466D01*
X78924472Y-55143466D02*
X75189960Y-55143466D01*
X75189960Y-55143466D02*
X72294317Y-52247822D01*
X82550000Y-58420000D02*
X82550000Y-59411200D01*
X82550000Y-59411200D02*
X82587500Y-59448700D01*
X72462657Y-51841411D02*
X51266660Y-51841411D01*
X83185000Y-58133994D02*
X79788061Y-54737055D01*
X50165000Y-50739751D02*
X50165000Y-45453300D01*
X50165000Y-45453300D02*
X50165000Y-44678600D01*
X51266660Y-51841411D02*
X50165000Y-50739751D01*
X83222500Y-59448700D02*
X83185000Y-59411200D01*
X75358300Y-54737055D02*
X72462657Y-51841411D01*
X83185000Y-59411200D02*
X83185000Y-58133994D01*
X79788061Y-54737055D02*
X75358300Y-54737055D01*
X83820000Y-58420000D02*
X83820000Y-59411200D01*
X83820000Y-59411200D02*
X83857500Y-59448700D01*
X67310000Y-58420000D02*
X67310000Y-59411200D01*
X67310000Y-59411200D02*
X67347500Y-59448700D01*
X50863500Y-50863500D02*
X50863500Y-45453300D01*
X84492500Y-59448700D02*
X84455000Y-59411200D01*
X51435000Y-44881800D02*
X51435000Y-44678600D01*
X50863500Y-45453300D02*
X51435000Y-44881800D01*
X75526640Y-54330644D02*
X72630997Y-51435000D01*
X51435000Y-51435000D02*
X50863500Y-50863500D01*
X84455000Y-59411200D02*
X84455000Y-58133994D01*
X84455000Y-58133994D02*
X80651650Y-54330644D01*
X80651650Y-54330644D02*
X75526640Y-54330644D01*
X72630997Y-51435000D02*
X51435000Y-51435000D01*
X85090000Y-58420000D02*
X85090000Y-59411200D01*
X85090000Y-59411200D02*
X85127500Y-59448700D01*
X85725000Y-58133994D02*
X81515239Y-53924233D01*
X81515239Y-53924233D02*
X75694980Y-53924233D01*
X75694980Y-53924233D02*
X72570748Y-50800000D01*
X52070000Y-50800000D02*
X52070000Y-45313600D01*
X52070000Y-45313600D02*
X52705000Y-44678600D01*
X72570748Y-50800000D02*
X52070000Y-50800000D01*
X85762500Y-59448700D02*
X85725000Y-59411200D01*
X85725000Y-59411200D02*
X85725000Y-58133994D01*
X86360000Y-58420000D02*
X86360000Y-59411200D01*
X86360000Y-59411200D02*
X86397500Y-59448700D01*
X87032500Y-59448700D02*
X86982301Y-59398501D01*
X82378828Y-53517822D02*
X75863320Y-53517822D01*
X86982301Y-59398501D02*
X86982301Y-58121295D01*
X52705000Y-46151800D02*
X53975000Y-44881800D01*
X53975000Y-44881800D02*
X53975000Y-44678600D01*
X52882822Y-50342822D02*
X52705000Y-50165000D01*
X52705000Y-50165000D02*
X52705000Y-46151800D01*
X75863320Y-53517822D02*
X72688321Y-50342822D01*
X72688321Y-50342822D02*
X52882822Y-50342822D01*
X86982301Y-58121295D02*
X82378828Y-53517822D01*
X87630000Y-58420000D02*
X87630000Y-59411200D01*
X87630000Y-59411200D02*
X87667500Y-59448700D01*
X88302500Y-59448700D02*
X88252301Y-59398501D01*
X53340000Y-49530000D02*
X53340000Y-46786800D01*
X88252301Y-58121295D02*
X83242417Y-53111411D01*
X55245000Y-44881800D02*
X55245000Y-44678600D01*
X53340000Y-46786800D02*
X55245000Y-44881800D01*
X53746411Y-49936411D02*
X53340000Y-49530000D01*
X72856661Y-49936411D02*
X53746411Y-49936411D01*
X76031660Y-53111411D02*
X72856661Y-49936411D01*
X88252301Y-59398501D02*
X88252301Y-58121295D01*
X83242417Y-53111411D02*
X76031660Y-53111411D01*
X88900000Y-58420000D02*
X88900000Y-59411200D01*
X88900000Y-59411200D02*
X88937500Y-59448700D01*
X89535000Y-56515000D02*
X85725000Y-52705000D01*
X85725000Y-52705000D02*
X76200000Y-52705000D01*
X89572500Y-59448700D02*
X89535000Y-59411200D01*
X89535000Y-59411200D02*
X89535000Y-56515000D01*
X76200000Y-52705000D02*
X73025000Y-49530000D01*
X73025000Y-49530000D02*
X55245000Y-49530000D01*
X55245000Y-49530000D02*
X55245000Y-45948600D01*
X55245000Y-45948600D02*
X56515000Y-44678600D01*
X90207500Y-58457500D02*
X90170000Y-58420000D01*
X90207500Y-59448700D02*
X90207500Y-58457500D01*
X90333818Y-58583818D02*
X90333818Y-59322382D01*
X90333818Y-59322382D02*
X90207500Y-59448700D01*
X46525833Y-56718343D02*
X34925000Y-45117510D01*
X34925000Y-45117510D02*
X34925000Y-44678600D01*
X67982500Y-59448700D02*
X67945000Y-59411200D01*
X67945000Y-59411200D02*
X67945000Y-56718343D01*
X67945000Y-56718343D02*
X46525833Y-56718343D01*
X68580000Y-58420000D02*
X68580000Y-59411200D01*
X68580000Y-59411200D02*
X68617500Y-59448700D01*
X36195000Y-44678600D02*
X36195000Y-45812759D01*
X36195000Y-45812759D02*
X46694173Y-56311932D01*
X46694173Y-56311932D02*
X69215000Y-56311932D01*
X69215000Y-56311932D02*
X69215000Y-59411200D01*
X69215000Y-59411200D02*
X69252500Y-59448700D01*
X69850000Y-58420000D02*
X69850000Y-59411200D01*
X69850000Y-59411200D02*
X69887500Y-59448700D01*
X70472301Y-56994483D02*
X69383338Y-55905520D01*
X70472301Y-60400599D02*
X70472301Y-56994483D01*
X70522500Y-60350400D02*
X70472301Y-60400599D01*
X37465000Y-46508007D02*
X37465000Y-44678600D01*
X46862512Y-55905519D02*
X37465000Y-46508007D01*
X69383338Y-55905520D02*
X46862512Y-55905519D01*
X70522500Y-59448700D02*
X70522500Y-60350400D01*
X71120000Y-58420000D02*
X71120000Y-59411200D01*
X71120000Y-59411200D02*
X71157500Y-59448700D01*
X71144800Y-59436000D02*
X71157500Y-59448700D01*
X89535000Y-55245000D02*
X89535000Y-55880000D01*
X89535000Y-55880000D02*
X92112500Y-58457500D01*
X92112500Y-58457500D02*
X92112500Y-59448700D01*
X78740000Y-41910000D02*
X79375000Y-41910000D01*
X79375000Y-41910000D02*
X81280000Y-43815000D01*
X81609094Y-43815000D02*
X82879094Y-45085000D01*
X82879094Y-45085000D02*
X83820000Y-45085000D01*
X81280000Y-43815000D02*
X81609094Y-43815000D01*
X89535000Y-50800000D02*
X89535000Y-55245000D01*
X83820000Y-45085000D02*
X89535000Y-50800000D01*
X92252199Y-59309001D02*
X92112500Y-59448700D01*
X94652499Y-60418401D02*
X94652499Y-59448701D01*
X94652499Y-59448701D02*
X94652500Y-59448700D01*
X95922500Y-59448700D02*
X95922500Y-60418400D01*
X95922500Y-60418400D02*
X95922499Y-60418401D01*
X94652500Y-59448700D02*
X94652500Y-50202500D01*
X94652500Y-50202500D02*
X86360000Y-41910000D01*
D20*
G36*
X89970610Y-40554880D02*
X89970610Y-42340736D01*
X90034124Y-42660044D01*
X90214997Y-42930739D01*
X97903701Y-50619443D01*
X97903701Y-58890022D01*
X97525065Y-58889691D01*
X97395440Y-58943251D01*
X97395440Y-58750200D01*
X97351162Y-58514883D01*
X97294100Y-58426206D01*
X97294100Y-58358115D01*
X97327020Y-58325253D01*
X97472335Y-57975295D01*
X97472665Y-57596367D01*
X97327961Y-57246157D01*
X97060253Y-56977980D01*
X96710295Y-56832665D01*
X96331367Y-56832335D01*
X95981157Y-56977039D01*
X95712980Y-57244747D01*
X95567665Y-57594705D01*
X95567335Y-57973633D01*
X95628719Y-58122194D01*
X95623544Y-58123167D01*
X95604309Y-58115200D01*
X95541500Y-58115200D01*
X95512670Y-58144030D01*
X95496683Y-58147038D01*
X95414502Y-58199920D01*
X95414502Y-58115200D01*
X95389100Y-58115200D01*
X95389100Y-50202500D01*
X95333030Y-49920615D01*
X95173355Y-49681645D01*
X87732944Y-42241234D01*
X87754758Y-42188700D01*
X87755242Y-41633735D01*
X87543313Y-41120828D01*
X87187790Y-40764684D01*
X87355317Y-40733162D01*
X87571441Y-40594090D01*
X87716431Y-40381890D01*
X87767440Y-40130000D01*
X87767440Y-38610000D01*
X87723162Y-38374683D01*
X87601780Y-38186050D01*
X89970610Y-40554880D01*
X89970610Y-40554880D01*
G37*
X89970610Y-40554880D02*
X89970610Y-42340736D01*
X90034124Y-42660044D01*
X90214997Y-42930739D01*
X97903701Y-50619443D01*
X97903701Y-58890022D01*
X97525065Y-58889691D01*
X97395440Y-58943251D01*
X97395440Y-58750200D01*
X97351162Y-58514883D01*
X97294100Y-58426206D01*
X97294100Y-58358115D01*
X97327020Y-58325253D01*
X97472335Y-57975295D01*
X97472665Y-57596367D01*
X97327961Y-57246157D01*
X97060253Y-56977980D01*
X96710295Y-56832665D01*
X96331367Y-56832335D01*
X95981157Y-56977039D01*
X95712980Y-57244747D01*
X95567665Y-57594705D01*
X95567335Y-57973633D01*
X95628719Y-58122194D01*
X95623544Y-58123167D01*
X95604309Y-58115200D01*
X95541500Y-58115200D01*
X95512670Y-58144030D01*
X95496683Y-58147038D01*
X95414502Y-58199920D01*
X95414502Y-58115200D01*
X95389100Y-58115200D01*
X95389100Y-50202500D01*
X95333030Y-49920615D01*
X95173355Y-49681645D01*
X87732944Y-42241234D01*
X87754758Y-42188700D01*
X87755242Y-41633735D01*
X87543313Y-41120828D01*
X87187790Y-40764684D01*
X87355317Y-40733162D01*
X87571441Y-40594090D01*
X87716431Y-40381890D01*
X87767440Y-40130000D01*
X87767440Y-38610000D01*
X87723162Y-38374683D01*
X87601780Y-38186050D01*
X89970610Y-40554880D01*
G36*
X87553146Y-38137416D02*
X87371890Y-38013569D01*
X87120000Y-37962560D01*
X85600000Y-37962560D01*
X85364683Y-38006838D01*
X85148559Y-38145910D01*
X85003569Y-38358110D01*
X84952560Y-38610000D01*
X84952560Y-38614834D01*
X84798764Y-38570841D01*
X83999605Y-39370000D01*
X84798764Y-40169159D01*
X84952560Y-40125166D01*
X84952560Y-40130000D01*
X84996838Y-40365317D01*
X85135910Y-40581441D01*
X85348110Y-40726431D01*
X85533480Y-40763969D01*
X85178066Y-41118764D01*
X85090046Y-41330738D01*
X85003313Y-41120828D01*
X84611236Y-40728066D01*
X84415066Y-40646609D01*
X84549941Y-40590742D01*
X84619159Y-40348764D01*
X83820000Y-39549605D01*
X83020841Y-40348764D01*
X83090059Y-40590742D01*
X83234862Y-40642382D01*
X83030828Y-40726687D01*
X82638066Y-41118764D01*
X82550046Y-41330738D01*
X82463313Y-41120828D01*
X82071236Y-40728066D01*
X81875066Y-40646609D01*
X82009941Y-40590742D01*
X82079159Y-40348764D01*
X81280000Y-39549605D01*
X80480841Y-40348764D01*
X80550059Y-40590742D01*
X80694862Y-40642382D01*
X80490828Y-40726687D01*
X80098066Y-41118764D01*
X80010046Y-41330738D01*
X79923313Y-41120828D01*
X79531236Y-40728066D01*
X79335066Y-40646609D01*
X79469941Y-40590742D01*
X79539159Y-40348764D01*
X78740000Y-39549605D01*
X77940841Y-40348764D01*
X78010059Y-40590742D01*
X78154862Y-40642382D01*
X77950828Y-40726687D01*
X77558066Y-41118764D01*
X77470046Y-41330738D01*
X77383313Y-41120828D01*
X76991236Y-40728066D01*
X76779262Y-40640046D01*
X76989172Y-40553313D01*
X77381934Y-40161236D01*
X77463391Y-39965066D01*
X77519258Y-40099941D01*
X77761236Y-40169159D01*
X78560395Y-39370000D01*
X78919605Y-39370000D01*
X79718764Y-40169159D01*
X79960742Y-40099941D01*
X80006320Y-39972137D01*
X80059258Y-40099941D01*
X80301236Y-40169159D01*
X81100395Y-39370000D01*
X81459605Y-39370000D01*
X82258764Y-40169159D01*
X82500742Y-40099941D01*
X82546320Y-39972137D01*
X82599258Y-40099941D01*
X82841236Y-40169159D01*
X83640395Y-39370000D01*
X82841236Y-38570841D01*
X82599258Y-38640059D01*
X82553680Y-38767863D01*
X82500742Y-38640059D01*
X82258764Y-38570841D01*
X81459605Y-39370000D01*
X81100395Y-39370000D01*
X80301236Y-38570841D01*
X80059258Y-38640059D01*
X80013680Y-38767863D01*
X79960742Y-38640059D01*
X79718764Y-38570841D01*
X78919605Y-39370000D01*
X78560395Y-39370000D01*
X78546253Y-39355858D01*
X78725858Y-39176253D01*
X78740000Y-39190395D01*
X79539159Y-38391236D01*
X80480841Y-38391236D01*
X81280000Y-39190395D01*
X82079159Y-38391236D01*
X83020841Y-38391236D01*
X83820000Y-39190395D01*
X84619159Y-38391236D01*
X84549941Y-38149258D01*
X84027220Y-37962845D01*
X83472951Y-37990659D01*
X83090059Y-38149258D01*
X83020841Y-38391236D01*
X82079159Y-38391236D01*
X82009941Y-38149258D01*
X81487220Y-37962845D01*
X80932951Y-37990659D01*
X80550059Y-38149258D01*
X80480841Y-38391236D01*
X79539159Y-38391236D01*
X79469941Y-38149258D01*
X78947220Y-37962845D01*
X78778705Y-37971301D01*
X79720616Y-37029390D01*
X86445120Y-37029390D01*
X87553146Y-38137416D01*
X87553146Y-38137416D01*
G37*
X87553146Y-38137416D02*
X87371890Y-38013569D01*
X87120000Y-37962560D01*
X85600000Y-37962560D01*
X85364683Y-38006838D01*
X85148559Y-38145910D01*
X85003569Y-38358110D01*
X84952560Y-38610000D01*
X84952560Y-38614834D01*
X84798764Y-38570841D01*
X83999605Y-39370000D01*
X84798764Y-40169159D01*
X84952560Y-40125166D01*
X84952560Y-40130000D01*
X84996838Y-40365317D01*
X85135910Y-40581441D01*
X85348110Y-40726431D01*
X85533480Y-40763969D01*
X85178066Y-41118764D01*
X85090046Y-41330738D01*
X85003313Y-41120828D01*
X84611236Y-40728066D01*
X84415066Y-40646609D01*
X84549941Y-40590742D01*
X84619159Y-40348764D01*
X83820000Y-39549605D01*
X83020841Y-40348764D01*
X83090059Y-40590742D01*
X83234862Y-40642382D01*
X83030828Y-40726687D01*
X82638066Y-41118764D01*
X82550046Y-41330738D01*
X82463313Y-41120828D01*
X82071236Y-40728066D01*
X81875066Y-40646609D01*
X82009941Y-40590742D01*
X82079159Y-40348764D01*
X81280000Y-39549605D01*
X80480841Y-40348764D01*
X80550059Y-40590742D01*
X80694862Y-40642382D01*
X80490828Y-40726687D01*
X80098066Y-41118764D01*
X80010046Y-41330738D01*
X79923313Y-41120828D01*
X79531236Y-40728066D01*
X79335066Y-40646609D01*
X79469941Y-40590742D01*
X79539159Y-40348764D01*
X78740000Y-39549605D01*
X77940841Y-40348764D01*
X78010059Y-40590742D01*
X78154862Y-40642382D01*
X77950828Y-40726687D01*
X77558066Y-41118764D01*
X77470046Y-41330738D01*
X77383313Y-41120828D01*
X76991236Y-40728066D01*
X76779262Y-40640046D01*
X76989172Y-40553313D01*
X77381934Y-40161236D01*
X77463391Y-39965066D01*
X77519258Y-40099941D01*
X77761236Y-40169159D01*
X78560395Y-39370000D01*
X78919605Y-39370000D01*
X79718764Y-40169159D01*
X79960742Y-40099941D01*
X80006320Y-39972137D01*
X80059258Y-40099941D01*
X80301236Y-40169159D01*
X81100395Y-39370000D01*
X81459605Y-39370000D01*
X82258764Y-40169159D01*
X82500742Y-40099941D01*
X82546320Y-39972137D01*
X82599258Y-40099941D01*
X82841236Y-40169159D01*
X83640395Y-39370000D01*
X82841236Y-38570841D01*
X82599258Y-38640059D01*
X82553680Y-38767863D01*
X82500742Y-38640059D01*
X82258764Y-38570841D01*
X81459605Y-39370000D01*
X81100395Y-39370000D01*
X80301236Y-38570841D01*
X80059258Y-38640059D01*
X80013680Y-38767863D01*
X79960742Y-38640059D01*
X79718764Y-38570841D01*
X78919605Y-39370000D01*
X78560395Y-39370000D01*
X78546253Y-39355858D01*
X78725858Y-39176253D01*
X78740000Y-39190395D01*
X79539159Y-38391236D01*
X80480841Y-38391236D01*
X81280000Y-39190395D01*
X82079159Y-38391236D01*
X83020841Y-38391236D01*
X83820000Y-39190395D01*
X84619159Y-38391236D01*
X84549941Y-38149258D01*
X84027220Y-37962845D01*
X83472951Y-37990659D01*
X83090059Y-38149258D01*
X83020841Y-38391236D01*
X82079159Y-38391236D01*
X82009941Y-38149258D01*
X81487220Y-37962845D01*
X80932951Y-37990659D01*
X80550059Y-38149258D01*
X80480841Y-38391236D01*
X79539159Y-38391236D01*
X79469941Y-38149258D01*
X78947220Y-37962845D01*
X78778705Y-37971301D01*
X79720616Y-37029390D01*
X86445120Y-37029390D01*
X87553146Y-38137416D01*
M02*
