G04 #@! TF.FileFunction,Soldermask,Bot*
%FSLAX46Y46*%
G04 Gerber Fmt 4.6, Leading zero omitted, Abs format (unit mm)*
G04 Created by KiCad (PCBNEW 4.0.6) date Tuesday, May 23, 2017 'AMt' 09:33:37 AM*
%MOMM*%
%LPD*%
G01*
G04 APERTURE LIST*
%ADD10C,0.150000*%
%ADD11C,5.968000*%
%ADD12R,2.028000X2.028000*%
%ADD13C,2.028000*%
%ADD14C,1.651000*%
%ADD15R,1.244600X1.651000*%
%ADD16C,1.778000*%
G04 APERTURE END LIST*
D10*
D11*
X95250000Y-40640000D03*
X67310000Y-40640000D03*
D12*
X86360000Y-39370000D03*
D13*
X86360000Y-41910000D03*
X83820000Y-39370000D03*
X83820000Y-41910000D03*
X81280000Y-39370000D03*
X81280000Y-41910000D03*
X78740000Y-39370000D03*
X78740000Y-41910000D03*
X76200000Y-39370000D03*
X76200000Y-41910000D03*
D14*
X97764000Y-62357000D03*
X64236000Y-62357000D03*
X97764000Y-60096400D03*
X64236000Y-60096400D03*
D15*
X32385000Y-44678600D03*
X32385000Y-46202600D03*
X33655000Y-44678600D03*
X33655000Y-46202600D03*
X34925000Y-44678600D03*
X34925000Y-46202600D03*
X36195000Y-44678600D03*
X36195000Y-46202600D03*
X37465000Y-44678600D03*
X37465000Y-46202600D03*
X38735000Y-44678600D03*
X38735000Y-46202600D03*
X40005000Y-44678600D03*
X40005000Y-46202600D03*
X41275000Y-44678600D03*
X41275000Y-46202600D03*
X42545000Y-44678600D03*
X42545000Y-46202600D03*
X43815000Y-44678600D03*
X43815000Y-46202600D03*
X45085000Y-44678600D03*
X45085000Y-46202600D03*
X46355000Y-44678600D03*
X46355000Y-46202600D03*
X47625000Y-44678600D03*
X47625000Y-46202600D03*
X48895000Y-44678600D03*
X48895000Y-46202600D03*
X50165000Y-44678600D03*
X50165000Y-46202600D03*
X51435000Y-44678600D03*
X51435000Y-46202600D03*
X52705000Y-44678600D03*
X52705000Y-46202600D03*
X53975000Y-44678600D03*
X53975000Y-46202600D03*
X55245000Y-44678600D03*
X55245000Y-46202600D03*
X56515000Y-44678600D03*
X56515000Y-46202600D03*
D16*
X29794200Y-39573200D03*
X59105800Y-39573200D03*
X29794200Y-41833800D03*
X59105800Y-41833800D03*
M02*
