M48
;DRILL file {KiCad 4.0.6} date Tuesday, May 23, 2017 'AMt' 09:39:28 AM
;FORMAT={-:-/ absolute / metric / decimal}
FMAT,2
METRIC,TZ
T1C0.381
T2C0.711
T3C0.838
T4C0.910
T5C2.690
%
G90
G05
M71
T1
X32.385Y-44.45
X33.655Y-44.679
X34.925Y-44.679
X36.195Y-44.679
X37.465Y-44.679
X38.735Y-44.679
X40.005Y-44.679
X41.275Y-44.679
X42.545Y-44.679
X43.815Y-44.679
X45.085Y-44.679
X46.355Y-44.679
X47.625Y-44.679
X48.895Y-44.679
X50.165Y-44.679
X51.435Y-44.679
X52.705Y-44.679
X53.975Y-44.679
X55.245Y-44.679
X56.515Y-44.679
X66.04Y-58.407
X67.31Y-58.42
X68.58Y-58.42
X69.85Y-58.42
X71.12Y-58.42
X72.415Y-58.42
X73.66Y-58.42
X74.93Y-58.42
X76.2Y-58.42
X77.47Y-58.42
X78.74Y-58.42
X80.01Y-58.42
X81.28Y-58.42
X82.55Y-58.42
X83.82Y-58.42
X85.09Y-58.42
X86.36Y-39.37
X86.36Y-58.42
X87.63Y-58.42
X88.9Y-58.42
X90.17Y-58.42
X94.652Y-60.418
X95.922Y-60.418
X96.52Y-57.785
X97.764Y-60.096
X97.79Y-54.61
T2
X64.236Y-60.096
X64.236Y-62.357
X97.764Y-60.096
X97.764Y-62.357
T3
X29.794Y-39.573
X29.794Y-41.834
X59.106Y-39.573
X59.106Y-41.834
T4
X76.2Y-39.37
X76.2Y-41.91
X78.74Y-39.37
X78.74Y-41.91
X81.28Y-39.37
X81.28Y-41.91
X83.82Y-39.37
X83.82Y-41.91
X86.36Y-39.37
X86.36Y-41.91
T5
X67.31Y-40.64
X95.25Y-40.64
T0
M30
