G04 #@! TF.FileFunction,Copper,L2,Bot,Signal*
%FSLAX46Y46*%
G04 Gerber Fmt 4.6, Leading zero omitted, Abs format (unit mm)*
G04 Created by KiCad (PCBNEW 4.0.6) date Tuesday, May 23, 2017 'AMt' 09:33:36 AM*
%MOMM*%
%LPD*%
G01*
G04 APERTURE LIST*
%ADD10C,0.150000*%
%ADD11C,5.460000*%
%ADD12R,1.520000X1.520000*%
%ADD13C,1.520000*%
%ADD14C,1.143000*%
%ADD15R,0.736600X1.143000*%
%ADD16C,1.270000*%
%ADD17C,0.635000*%
%ADD18C,0.203200*%
G04 APERTURE END LIST*
D10*
D11*
X95250000Y-40640000D03*
X67310000Y-40640000D03*
D12*
X86360000Y-39370000D03*
D13*
X86360000Y-41910000D03*
X83820000Y-39370000D03*
X83820000Y-41910000D03*
X81280000Y-39370000D03*
X81280000Y-41910000D03*
X78740000Y-39370000D03*
X78740000Y-41910000D03*
X76200000Y-39370000D03*
X76200000Y-41910000D03*
D14*
X97764000Y-62357000D03*
X64236000Y-62357000D03*
X97764000Y-60096400D03*
X64236000Y-60096400D03*
D15*
X32385000Y-44678600D03*
X32385000Y-46202600D03*
X33655000Y-44678600D03*
X33655000Y-46202600D03*
X34925000Y-44678600D03*
X34925000Y-46202600D03*
X36195000Y-44678600D03*
X36195000Y-46202600D03*
X37465000Y-44678600D03*
X37465000Y-46202600D03*
X38735000Y-44678600D03*
X38735000Y-46202600D03*
X40005000Y-44678600D03*
X40005000Y-46202600D03*
X41275000Y-44678600D03*
X41275000Y-46202600D03*
X42545000Y-44678600D03*
X42545000Y-46202600D03*
X43815000Y-44678600D03*
X43815000Y-46202600D03*
X45085000Y-44678600D03*
X45085000Y-46202600D03*
X46355000Y-44678600D03*
X46355000Y-46202600D03*
X47625000Y-44678600D03*
X47625000Y-46202600D03*
X48895000Y-44678600D03*
X48895000Y-46202600D03*
X50165000Y-44678600D03*
X50165000Y-46202600D03*
X51435000Y-44678600D03*
X51435000Y-46202600D03*
X52705000Y-44678600D03*
X52705000Y-46202600D03*
X53975000Y-44678600D03*
X53975000Y-46202600D03*
X55245000Y-44678600D03*
X55245000Y-46202600D03*
X56515000Y-44678600D03*
X56515000Y-46202600D03*
D16*
X29794200Y-39573200D03*
X59105800Y-39573200D03*
X29794200Y-41833800D03*
X59105800Y-41833800D03*
D17*
X86360000Y-39370000D03*
X96520000Y-57785000D03*
X97790000Y-54610000D03*
X32385000Y-44450000D03*
X66040000Y-58407310D03*
X38735000Y-44678600D03*
X72414810Y-58420000D03*
X40005000Y-44678600D03*
X73660000Y-58420000D03*
X41275000Y-44678600D03*
X74930000Y-58420000D03*
X42545000Y-44678600D03*
X76200000Y-58420000D03*
X43815000Y-44678600D03*
X77470000Y-58420000D03*
X33655000Y-44678600D03*
X45085000Y-44678600D03*
X78740000Y-58420000D03*
X46355000Y-44678600D03*
X80010000Y-58420000D03*
X47625000Y-44678600D03*
X81280000Y-58420000D03*
X48895000Y-44678600D03*
X82550000Y-58420000D03*
X50165000Y-44678600D03*
X83820000Y-58420000D03*
X67310000Y-58420000D03*
X51435000Y-44678600D03*
X85090000Y-58420000D03*
X52705000Y-44678600D03*
X86360000Y-58420000D03*
X53975000Y-44678600D03*
X87630000Y-58420000D03*
X55245000Y-44678600D03*
X88900000Y-58420000D03*
X56515000Y-44678600D03*
X90170000Y-58420000D03*
X34925000Y-44678600D03*
X68580000Y-58420000D03*
X36195000Y-44678600D03*
X69850000Y-58420000D03*
X37465000Y-44678600D03*
X71120000Y-58420000D03*
X94652499Y-60418401D03*
X95922499Y-60418401D03*
X97764000Y-60096400D03*
D18*
X88900000Y-39370000D02*
X86360000Y-39370000D01*
X88900000Y-50165000D02*
X88900000Y-39370000D01*
X96520000Y-57785000D02*
X88900000Y-50165000D01*
X32385000Y-44678600D02*
X32385000Y-44450000D01*
X32385000Y-46202600D02*
X32385000Y-46977300D01*
X32385000Y-46977300D02*
X41922700Y-56515000D01*
X41922700Y-56515000D02*
X42545000Y-56515000D01*
X42545000Y-56515000D02*
X44437310Y-58407310D01*
X44437310Y-58407310D02*
X64628164Y-58407310D01*
X64628164Y-58407310D02*
X66040000Y-58407310D01*
X68424773Y-56540521D02*
X70535331Y-56540521D01*
X70535331Y-56540521D02*
X72097311Y-58102501D01*
X72097311Y-58102501D02*
X72414810Y-58420000D01*
X38735000Y-46202600D02*
X38735000Y-46405800D01*
X38735000Y-46405800D02*
X47624967Y-55295767D01*
X47624967Y-55295767D02*
X67180020Y-55295767D01*
X67180020Y-55295767D02*
X68424773Y-56540521D01*
X40005000Y-46202600D02*
X40005000Y-46405800D01*
X40005000Y-46405800D02*
X48488556Y-54889356D01*
X48488556Y-54889356D02*
X67348360Y-54889356D01*
X67348360Y-54889356D02*
X68593113Y-56134110D01*
X68593113Y-56134110D02*
X71374110Y-56134110D01*
X71374110Y-56134110D02*
X73342501Y-58102501D01*
X73342501Y-58102501D02*
X73660000Y-58420000D01*
X73660000Y-58420000D02*
X73682419Y-58420000D01*
X73682419Y-58420000D02*
X73684800Y-58417619D01*
X67516700Y-54482945D02*
X68761453Y-55727699D01*
X68761453Y-55727699D02*
X72237699Y-55727699D01*
X72237699Y-55727699D02*
X74612501Y-58102501D01*
X74612501Y-58102501D02*
X74930000Y-58420000D01*
X49352145Y-54482945D02*
X67516700Y-54482945D01*
X41275000Y-46202600D02*
X41275000Y-46405800D01*
X41275000Y-46405800D02*
X49352145Y-54482945D01*
X42545000Y-46405800D02*
X50215734Y-54076534D01*
X50215734Y-54076534D02*
X67685040Y-54076534D01*
X67685040Y-54076534D02*
X68929793Y-55321288D01*
X68929793Y-55321288D02*
X73101288Y-55321288D01*
X73101288Y-55321288D02*
X75882501Y-58102501D01*
X75882501Y-58102501D02*
X76200000Y-58420000D01*
X42545000Y-46202600D02*
X42545000Y-46405800D01*
X77152501Y-58102501D02*
X77470000Y-58420000D01*
X69098133Y-54914877D02*
X73964877Y-54914877D01*
X73964877Y-54914877D02*
X77152501Y-58102501D01*
X43815000Y-46202600D02*
X43815000Y-46405800D01*
X43815000Y-46405800D02*
X51079323Y-53670123D01*
X51079323Y-53670123D02*
X67853380Y-53670123D01*
X67853380Y-53670123D02*
X69098133Y-54914877D01*
X33655000Y-44678600D02*
X33655000Y-44475400D01*
X78422501Y-58102501D02*
X78740000Y-58420000D01*
X74828466Y-54508466D02*
X78422501Y-58102501D01*
X69266473Y-54508466D02*
X74828466Y-54508466D01*
X68021720Y-53263712D02*
X69266473Y-54508466D01*
X51942912Y-53263712D02*
X68021720Y-53263712D01*
X45085000Y-46405800D02*
X51942912Y-53263712D01*
X45085000Y-46202600D02*
X45085000Y-46405800D01*
X79692501Y-58102501D02*
X80010000Y-58420000D01*
X75692055Y-54102055D02*
X79692501Y-58102501D01*
X69434813Y-54102055D02*
X75692055Y-54102055D01*
X68190060Y-52857301D02*
X69434813Y-54102055D01*
X52806501Y-52857301D02*
X68190060Y-52857301D01*
X46355000Y-46405800D02*
X52806501Y-52857301D01*
X46355000Y-46202600D02*
X46355000Y-46405800D01*
X53670090Y-52450890D02*
X68358400Y-52450890D01*
X47625000Y-46405800D02*
X53670090Y-52450890D01*
X47625000Y-46202600D02*
X47625000Y-46405800D01*
X68358400Y-52450890D02*
X69603153Y-53695644D01*
X69603153Y-53695644D02*
X76555644Y-53695644D01*
X76555644Y-53695644D02*
X80962501Y-58102501D01*
X80962501Y-58102501D02*
X81280000Y-58420000D01*
X82232501Y-58102501D02*
X82550000Y-58420000D01*
X77419233Y-53289233D02*
X82232501Y-58102501D01*
X69771493Y-53289233D02*
X77419233Y-53289233D01*
X68526740Y-52044479D02*
X69771493Y-53289233D01*
X54533679Y-52044479D02*
X68526740Y-52044479D01*
X48895000Y-46405800D02*
X54533679Y-52044479D01*
X48895000Y-46202600D02*
X48895000Y-46405800D01*
X50165000Y-46405800D02*
X55397268Y-51638068D01*
X50165000Y-46202600D02*
X50165000Y-46405800D01*
X83502501Y-58102501D02*
X83820000Y-58420000D01*
X78282822Y-52882822D02*
X83502501Y-58102501D01*
X69939833Y-52882822D02*
X78282822Y-52882822D01*
X68695080Y-51638068D02*
X69939833Y-52882822D01*
X55397268Y-51638068D02*
X68695080Y-51638068D01*
X33655000Y-46202600D02*
X33655000Y-46990000D01*
X33655000Y-46990000D02*
X44450009Y-57785009D01*
X44450009Y-57785009D02*
X66675009Y-57785009D01*
X66675009Y-57785009D02*
X67310000Y-58420000D01*
X33655000Y-46355000D02*
X33655000Y-46202600D01*
X56260857Y-51231657D02*
X68863420Y-51231657D01*
X68863420Y-51231657D02*
X70108173Y-52476411D01*
X70108173Y-52476411D02*
X79146411Y-52476411D01*
X79146411Y-52476411D02*
X84772501Y-58102501D01*
X84772501Y-58102501D02*
X85090000Y-58420000D01*
X51435000Y-46405800D02*
X56260857Y-51231657D01*
X51435000Y-46202600D02*
X51435000Y-46405800D01*
X86042501Y-58102501D02*
X86360000Y-58420000D01*
X57124446Y-50825246D02*
X69031760Y-50825246D01*
X69031760Y-50825246D02*
X70276513Y-52070000D01*
X70276513Y-52070000D02*
X80010000Y-52070000D01*
X80010000Y-52070000D02*
X86042501Y-58102501D01*
X52705000Y-46202600D02*
X52705000Y-46405800D01*
X52705000Y-46405800D02*
X57124446Y-50825246D01*
X53975000Y-46202600D02*
X53975000Y-46405800D01*
X53975000Y-46405800D02*
X57988035Y-50418835D01*
X57988035Y-50418835D02*
X69200100Y-50418835D01*
X87312501Y-58102501D02*
X87630000Y-58420000D01*
X86855323Y-57645323D02*
X87312501Y-58102501D01*
X86340821Y-57645323D02*
X86855323Y-57645323D01*
X80359087Y-51663589D02*
X86340821Y-57645323D01*
X70444853Y-51663589D02*
X80359087Y-51663589D01*
X69200100Y-50418835D02*
X70444853Y-51663589D01*
X88582501Y-58102501D02*
X88900000Y-58420000D01*
X87718912Y-57238912D02*
X88582501Y-58102501D01*
X86509161Y-57238912D02*
X87718912Y-57238912D01*
X80527427Y-51257178D02*
X86509161Y-57238912D01*
X70613193Y-51257178D02*
X80527427Y-51257178D01*
X58851624Y-50012424D02*
X69368440Y-50012424D01*
X55245000Y-46405800D02*
X58851624Y-50012424D01*
X69368440Y-50012424D02*
X70613193Y-51257178D01*
X55245000Y-46202600D02*
X55245000Y-46405800D01*
X89852501Y-58102501D02*
X90170000Y-58420000D01*
X77952600Y-46202600D02*
X89852501Y-58102501D01*
X56515000Y-46202600D02*
X77952600Y-46202600D01*
X34925000Y-46405800D02*
X34925000Y-46202600D01*
X45669200Y-57150000D02*
X34925000Y-46405800D01*
X67310000Y-57150000D02*
X45669200Y-57150000D01*
X68580000Y-58420000D02*
X67310000Y-57150000D01*
X36195000Y-44678600D02*
X36766500Y-44678600D01*
X68088093Y-57353343D02*
X68783343Y-57353343D01*
X68783343Y-57353343D02*
X69532501Y-58102501D01*
X69532501Y-58102501D02*
X69850000Y-58420000D01*
X36195000Y-46202600D02*
X36195000Y-46405800D01*
X36195000Y-46405800D02*
X45897789Y-56108589D01*
X45897789Y-56108589D02*
X66843340Y-56108589D01*
X66843340Y-56108589D02*
X68088093Y-57353343D01*
X70802501Y-58102501D02*
X71120000Y-58420000D01*
X68256433Y-56946932D02*
X69646932Y-56946932D01*
X69646932Y-56946932D02*
X70802501Y-58102501D01*
X67011680Y-55702178D02*
X68256433Y-56946932D01*
X37465000Y-46202600D02*
X37465000Y-46405800D01*
X37465000Y-46405800D02*
X46761378Y-55702178D01*
X46761378Y-55702178D02*
X67011680Y-55702178D01*
X95922499Y-60418401D02*
X94652499Y-60418401D01*
X64236000Y-62357000D02*
X97764000Y-62357000D01*
X64236000Y-62357000D02*
X64236000Y-60096400D01*
X97764000Y-62357000D02*
X97764000Y-60096400D01*
M02*
